<mxfile host="app.diagrams.net" agent="Mozilla/5.0 (Windows NT 10.0; Win64; x64) AppleWebKit/537.36 (KHTML, like Gecko) Chrome/135.0.0.0 Safari/537.36" version="26.3.0">
  <diagram name="Página-1" id="P1_OWmi3rbp_EzewStbN">
    <mxGraphModel dx="1226" dy="661" grid="1" gridSize="10" guides="1" tooltips="1" connect="1" arrows="1" fold="1" page="1" pageScale="1" pageWidth="827" pageHeight="1169" math="0" shadow="0">
      <root>
        <mxCell id="0" />
        <mxCell id="1" parent="0" />
        <mxCell id="SMWcKiUvBcjEUDSOni17-1" value="Usuário" style="text;html=1;align=center;verticalAlign=middle;whiteSpace=wrap;rounded=0;" vertex="1" parent="1">
          <mxGeometry x="130" y="190" width="60" height="30" as="geometry" />
        </mxCell>
        <mxCell id="SMWcKiUvBcjEUDSOni17-2" value="Usuário" style="text;html=1;align=center;verticalAlign=middle;whiteSpace=wrap;rounded=0;" vertex="1" parent="1">
          <mxGeometry x="130" y="371" width="60" height="30" as="geometry" />
        </mxCell>
        <mxCell id="SMWcKiUvBcjEUDSOni17-6" value="" style="endArrow=none;dashed=1;html=1;dashPattern=1 3;strokeWidth=2;rounded=0;" edge="1" parent="1">
          <mxGeometry width="50" height="50" relative="1" as="geometry">
            <mxPoint x="159.57" y="360" as="sourcePoint" />
            <mxPoint x="159.57" y="230" as="targetPoint" />
          </mxGeometry>
        </mxCell>
        <mxCell id="SMWcKiUvBcjEUDSOni17-7" value="" style="rounded=0;whiteSpace=wrap;html=1;" vertex="1" parent="1">
          <mxGeometry x="250" y="138" width="110" height="50" as="geometry" />
        </mxCell>
        <mxCell id="SMWcKiUvBcjEUDSOni17-9" value="Interface do Sistema de Controle" style="text;html=1;align=center;verticalAlign=middle;whiteSpace=wrap;rounded=0;" vertex="1" parent="1">
          <mxGeometry x="270" y="148" width="70" height="30" as="geometry" />
        </mxCell>
        <mxCell id="SMWcKiUvBcjEUDSOni17-11" value="" style="rounded=0;whiteSpace=wrap;html=1;" vertex="1" parent="1">
          <mxGeometry x="250" y="425" width="110" height="40" as="geometry" />
        </mxCell>
        <mxCell id="SMWcKiUvBcjEUDSOni17-13" value="" style="endArrow=none;dashed=1;html=1;dashPattern=1 3;strokeWidth=2;rounded=0;entryX=0.5;entryY=1;entryDx=0;entryDy=0;exitX=0.5;exitY=0;exitDx=0;exitDy=0;" edge="1" parent="1" source="SMWcKiUvBcjEUDSOni17-11" target="SMWcKiUvBcjEUDSOni17-7">
          <mxGeometry width="50" height="50" relative="1" as="geometry">
            <mxPoint x="305" y="345" as="sourcePoint" />
            <mxPoint x="304.57" y="225" as="targetPoint" />
          </mxGeometry>
        </mxCell>
        <mxCell id="SMWcKiUvBcjEUDSOni17-14" value="" style="endArrow=classic;html=1;rounded=0;" edge="1" parent="1">
          <mxGeometry width="50" height="50" relative="1" as="geometry">
            <mxPoint x="170" y="240" as="sourcePoint" />
            <mxPoint x="300" y="240" as="targetPoint" />
          </mxGeometry>
        </mxCell>
        <mxCell id="SMWcKiUvBcjEUDSOni17-15" value="acessarInterface()" style="text;html=1;align=center;verticalAlign=middle;whiteSpace=wrap;rounded=0;" vertex="1" parent="1">
          <mxGeometry x="205" y="210" width="60" height="30" as="geometry" />
        </mxCell>
        <mxCell id="SMWcKiUvBcjEUDSOni17-16" value="" style="endArrow=classic;html=1;rounded=0;" edge="1" parent="1">
          <mxGeometry width="50" height="50" relative="1" as="geometry">
            <mxPoint x="300" y="330" as="sourcePoint" />
            <mxPoint x="170" y="330" as="targetPoint" />
          </mxGeometry>
        </mxCell>
        <mxCell id="SMWcKiUvBcjEUDSOni17-17" value="enviarComandoPouso()" style="text;html=1;align=center;verticalAlign=middle;whiteSpace=wrap;rounded=0;" vertex="1" parent="1">
          <mxGeometry x="207" y="300" width="60" height="30" as="geometry" />
        </mxCell>
        <mxCell id="SMWcKiUvBcjEUDSOni17-18" value="" style="rounded=0;whiteSpace=wrap;html=1;" vertex="1" parent="1">
          <mxGeometry x="411" y="425" width="110" height="41.75" as="geometry" />
        </mxCell>
        <mxCell id="SMWcKiUvBcjEUDSOni17-19" value="Sistema de Navegação" style="text;html=1;align=center;verticalAlign=middle;whiteSpace=wrap;rounded=0;" vertex="1" parent="1">
          <mxGeometry x="436" y="430.87" width="60" height="30" as="geometry" />
        </mxCell>
        <mxCell id="SMWcKiUvBcjEUDSOni17-20" value="" style="rounded=0;whiteSpace=wrap;html=1;" vertex="1" parent="1">
          <mxGeometry x="410" y="138" width="110" height="50" as="geometry" />
        </mxCell>
        <mxCell id="SMWcKiUvBcjEUDSOni17-21" value="Controlador do Drone" style="text;html=1;align=center;verticalAlign=middle;whiteSpace=wrap;rounded=0;" vertex="1" parent="1">
          <mxGeometry x="434" y="148" width="60" height="30" as="geometry" />
        </mxCell>
        <mxCell id="SMWcKiUvBcjEUDSOni17-22" value="Interrelacionador" style="text;html=1;align=center;verticalAlign=middle;whiteSpace=wrap;rounded=0;" vertex="1" parent="1">
          <mxGeometry x="275" y="431" width="60" height="30" as="geometry" />
        </mxCell>
        <mxCell id="SMWcKiUvBcjEUDSOni17-24" value="" style="endArrow=none;dashed=1;html=1;dashPattern=1 3;strokeWidth=2;rounded=0;exitX=0.5;exitY=0;exitDx=0;exitDy=0;entryX=0.5;entryY=1;entryDx=0;entryDy=0;" edge="1" parent="1" source="SMWcKiUvBcjEUDSOni17-18" target="SMWcKiUvBcjEUDSOni17-20">
          <mxGeometry width="50" height="50" relative="1" as="geometry">
            <mxPoint x="499" y="310" as="sourcePoint" />
            <mxPoint x="479" y="220" as="targetPoint" />
          </mxGeometry>
        </mxCell>
        <mxCell id="SMWcKiUvBcjEUDSOni17-25" value="" style="endArrow=classic;html=1;rounded=0;" edge="1" parent="1">
          <mxGeometry width="50" height="50" relative="1" as="geometry">
            <mxPoint x="310" y="240" as="sourcePoint" />
            <mxPoint x="460" y="240" as="targetPoint" />
          </mxGeometry>
        </mxCell>
        <mxCell id="SMWcKiUvBcjEUDSOni17-26" value="escolherModoOperação()" style="text;html=1;align=center;verticalAlign=middle;whiteSpace=wrap;rounded=0;" vertex="1" parent="1">
          <mxGeometry x="350" y="210" width="60" height="30" as="geometry" />
        </mxCell>
        <mxCell id="SMWcKiUvBcjEUDSOni17-27" value="" style="endArrow=classic;html=1;rounded=0;" edge="1" parent="1">
          <mxGeometry width="50" height="50" relative="1" as="geometry">
            <mxPoint x="460" y="280" as="sourcePoint" />
            <mxPoint x="310" y="280" as="targetPoint" />
          </mxGeometry>
        </mxCell>
        <mxCell id="SMWcKiUvBcjEUDSOni17-28" value="iniciarVoo()" style="text;html=1;align=center;verticalAlign=middle;whiteSpace=wrap;rounded=0;" vertex="1" parent="1">
          <mxGeometry x="351" y="250" width="60" height="30" as="geometry" />
        </mxCell>
        <mxCell id="SMWcKiUvBcjEUDSOni17-29" value="" style="endArrow=classic;html=1;rounded=0;" edge="1" parent="1">
          <mxGeometry width="50" height="50" relative="1" as="geometry">
            <mxPoint x="464" y="360" as="sourcePoint" />
            <mxPoint x="310" y="360.13" as="targetPoint" />
          </mxGeometry>
        </mxCell>
        <mxCell id="SMWcKiUvBcjEUDSOni17-31" value="" style="endArrow=classic;html=1;rounded=0;" edge="1" parent="1">
          <mxGeometry width="50" height="50" relative="1" as="geometry">
            <mxPoint x="310" y="320" as="sourcePoint" />
            <mxPoint x="460" y="320" as="targetPoint" />
          </mxGeometry>
        </mxCell>
        <mxCell id="SMWcKiUvBcjEUDSOni17-32" value="consultarSensores()" style="text;html=1;align=center;verticalAlign=middle;whiteSpace=wrap;rounded=0;" vertex="1" parent="1">
          <mxGeometry x="353" y="290" width="60" height="30" as="geometry" />
        </mxCell>
        <mxCell id="SMWcKiUvBcjEUDSOni17-33" value="ajustarTrajeto()" style="text;html=1;align=center;verticalAlign=middle;whiteSpace=wrap;rounded=0;" vertex="1" parent="1">
          <mxGeometry x="353" y="330" width="60" height="30" as="geometry" />
        </mxCell>
        <mxCell id="SMWcKiUvBcjEUDSOni17-34" value="" style="endArrow=classic;html=1;rounded=0;" edge="1" parent="1">
          <mxGeometry width="50" height="50" relative="1" as="geometry">
            <mxPoint x="310" y="410" as="sourcePoint" />
            <mxPoint x="464" y="410" as="targetPoint" />
          </mxGeometry>
        </mxCell>
        <mxCell id="SMWcKiUvBcjEUDSOni17-35" value="exibirStatus()" style="text;html=1;align=center;verticalAlign=middle;whiteSpace=wrap;rounded=0;" vertex="1" parent="1">
          <mxGeometry x="353" y="380" width="60" height="30" as="geometry" />
        </mxCell>
        <mxCell id="SMWcKiUvBcjEUDSOni17-36" value="" style="rounded=0;whiteSpace=wrap;html=1;" vertex="1" parent="1">
          <mxGeometry x="540" y="280" width="120" height="40" as="geometry" />
        </mxCell>
        <mxCell id="SMWcKiUvBcjEUDSOni17-37" value="Drones" style="text;html=1;align=center;verticalAlign=middle;whiteSpace=wrap;rounded=0;" vertex="1" parent="1">
          <mxGeometry x="570" y="285" width="60" height="30" as="geometry" />
        </mxCell>
        <mxCell id="SMWcKiUvBcjEUDSOni17-39" value="" style="strokeWidth=2;html=1;shape=mxgraph.flowchart.annotation_2;align=left;labelPosition=right;pointerEvents=1;direction=west;" vertex="1" parent="1">
          <mxGeometry x="470" y="250" width="70" height="100" as="geometry" />
        </mxCell>
      </root>
    </mxGraphModel>
  </diagram>
</mxfile>
